<svg width="30" height="30" viewBox="0 0 30 30" fill="none" xmlns="http://www.w3.org/2000/svg">
<path d="M13.0717 7.31971L8.56099 2.11305C8.04099 1.51305 7.08766 1.51571 6.48366 2.12105L2.77433 5.83705C1.67033 6.94238 1.35433 8.58372 1.99299 9.89972C5.80848 17.7997 12.1797 24.1798 20.0743 28.0064C21.389 28.645 23.029 28.329 24.133 27.2237L27.877 23.473C28.4837 22.8664 28.485 21.9077 27.8797 21.3877L22.653 16.901C22.1063 16.4317 21.257 16.493 20.709 17.0424L18.8903 18.8637C18.7972 18.9613 18.6747 19.0256 18.5415 19.0468C18.4083 19.068 18.2718 19.0449 18.153 18.981C15.1803 17.2692 12.7143 14.8 11.0063 11.825C10.9424 11.706 10.9192 11.5694 10.9404 11.4359C10.9616 11.3025 11.026 11.1797 11.1237 11.0864L12.937 9.27171C13.4863 8.71971 13.5463 7.86638 13.0717 7.31838V7.31971Z" stroke="#0D4F81" stroke-width="2" stroke-linecap="round" stroke-linejoin="round"/>
</svg>
