<svg width="316" height="97" viewBox="0 0 316 97" fill="none" xmlns="http://www.w3.org/2000/svg">
<path d="M97.6079 74.6045H98.5159V82.7761H97.6079V75.8151L93.0681 82.7761H92.1602V74.6045H93.0681V81.4142L97.6079 74.6045Z" fill="black"/>
<path d="M102.148 82.7761H101.24V74.6045H102.148V78.085H106.537V74.6045H107.445V82.7761H106.537V78.8416H102.148V82.7761Z" fill="black"/>
<path d="M113.953 78.6903L110.321 82.7761H109.262L113.045 78.3877L109.262 74.6045H110.321L113.802 78.2363V74.6045H114.709V78.2363L118.19 74.6045H119.249L115.466 78.3877L119.249 82.7761H118.19L114.558 78.6903V82.7761H113.65V78.6903H113.953Z" fill="black"/>
<path d="M126.814 78.2354V78.992H122.426V82.1699H127.268V82.9265H121.518V74.7549H127.117V75.5115H122.426V78.3867H126.814V78.2354Z" fill="black"/>
<path d="M130.299 82.7761H129.391V74.6045H130.299V78.085H134.687V74.6045H135.595V82.7761H134.687V78.8416H130.299V82.7761Z" fill="black"/>
<path d="M143.461 78.2354V78.992H139.072V82.1699H143.915V82.9265H138.164V74.7549H143.763V75.5115H139.072V78.3867H143.461V78.2354Z" fill="black"/>
<path d="M149.363 74.6045C149.969 74.6045 150.725 74.6045 151.331 75.2098C151.633 75.5124 152.087 76.1177 152.087 77.0257C152.087 77.9337 151.633 78.539 151.482 78.8416C150.877 79.4469 149.969 79.4469 149.363 79.4469H147.094V82.7761H146.186V74.6045H149.363ZM147.094 78.6903H149.212C149.666 78.6903 150.271 78.6903 150.725 78.3877C151.028 78.2363 151.331 77.7823 151.331 77.0257C151.331 76.4204 151.028 75.9664 150.725 75.6638C150.423 75.3611 149.817 75.3611 149.212 75.3611H147.094V78.6903Z" fill="black"/>
<path d="M155.265 82.7761H154.357V74.6045H155.265V78.085H159.654V74.6045H160.562V82.7761H159.654V78.8416H155.265V82.7761Z" fill="black"/>
<path d="M164.043 75.3601C164.497 74.9061 165.405 74.4521 166.615 74.4521C167.826 74.4521 168.734 74.9061 169.188 75.3601C169.944 76.1168 170.398 77.176 170.398 78.8406C170.398 80.5052 169.944 81.5645 169.188 82.1698C168.431 82.9265 167.372 83.0778 166.615 83.0778C165.707 83.0778 164.799 82.9265 164.043 82.1698C163.437 81.5645 162.832 80.5052 162.832 78.8406C162.832 77.176 163.437 75.9654 164.043 75.3601ZM164.648 81.5645C165.102 82.0185 165.859 82.3211 166.767 82.3211C167.674 82.3211 168.28 82.0185 168.734 81.5645C169.49 80.8079 169.642 79.4459 169.642 78.6893C169.642 76.8734 168.885 76.1167 168.582 75.8141C167.977 75.2088 167.221 75.2088 166.767 75.2088C166.01 75.2088 165.405 75.3601 164.951 75.8141C164.043 76.5707 163.891 77.9327 163.891 78.538C163.74 80.2026 164.194 81.1105 164.648 81.5645Z" fill="black"/>
<path d="M172.971 78.2361H175.997V79.1441H172.971V78.2361Z" fill="black"/>
<path d="M179.478 82.7761H178.57V74.6045H184.623V82.7761H183.715V75.3611H179.327V82.7761H179.478Z" fill="black"/>
<path d="M190.674 74.6045C191.279 74.6045 192.036 74.6045 192.641 75.2098C192.944 75.5124 193.398 76.1177 193.398 77.0257C193.398 77.9337 192.944 78.539 192.793 78.8416C192.187 79.4469 191.279 79.4469 190.674 79.4469H188.404V82.7761H187.496V74.6045H190.674ZM188.404 78.6903H190.523C190.977 78.6903 191.582 78.6903 192.036 78.3877C192.339 78.2363 192.641 77.7823 192.641 77.0257C192.641 76.4204 192.339 75.9664 192.036 75.6638C191.733 75.3611 191.128 75.3611 190.523 75.3611H188.404V78.6903Z" fill="black"/>
<path d="M196.578 75.3601C197.032 74.9061 197.94 74.4521 199.15 74.4521C200.361 74.4521 201.269 74.9061 201.723 75.3601C202.48 76.1168 202.934 77.176 202.934 78.8406C202.934 80.5052 202.48 81.5645 201.723 82.1698C200.966 82.9265 199.907 83.0778 199.15 83.0778C198.242 83.0778 197.334 82.9265 196.578 82.1698C195.972 81.5645 195.367 80.5052 195.367 78.8406C195.367 77.176 195.972 75.9654 196.578 75.3601ZM197.183 81.5645C197.637 82.0185 198.394 82.3211 199.302 82.3211C200.21 82.3211 200.815 82.0185 201.269 81.5645C202.026 80.8079 202.177 79.4459 202.177 78.6893C202.177 76.8734 201.42 76.1167 201.118 75.8141C200.512 75.2088 199.756 75.2088 199.302 75.2088C198.545 75.2088 197.94 75.3601 197.486 75.8141C196.578 76.5707 196.426 77.9327 196.426 78.538C196.275 80.2026 196.729 81.1105 197.183 81.5645Z" fill="black"/>
<path d="M210.952 74.6045H211.86V82.7761H210.952V75.8151L206.412 82.7761H205.504V74.6045H206.412V81.4142L210.952 74.6045Z" fill="black"/>
<path d="M215.041 80.3548C215.041 80.9601 215.343 81.4141 215.646 81.7168C216.251 82.1708 216.857 82.3221 217.462 82.3221C218.067 82.3221 218.673 82.3221 219.127 81.7168C219.429 81.4141 219.581 81.1115 219.581 80.5062C219.581 79.7495 219.127 79.2956 218.824 79.1442C218.37 78.8416 217.765 78.8416 217.462 78.8416H216.403V78.0849H217.311C217.462 78.0849 218.219 78.0849 218.673 77.631C218.824 77.4796 219.127 77.177 219.127 76.5717C219.127 75.9664 218.975 75.6637 218.521 75.3611C218.067 75.0584 217.462 75.0584 217.159 75.0584C216.705 75.0584 216.1 75.2097 215.646 75.3611C215.343 75.5124 215.041 75.9664 215.041 76.723H214.133C214.133 75.815 214.738 75.2097 214.889 75.0584C215.646 74.4531 216.554 74.3018 217.159 74.3018C217.765 74.3018 218.673 74.4531 219.429 75.0584C219.883 75.5124 220.035 76.1177 220.035 76.5717C220.035 77.0256 220.035 77.4796 219.581 77.9336C219.429 78.0849 219.127 78.3876 218.673 78.3876C219.278 78.3876 219.581 78.6902 219.883 78.9929C220.337 79.4469 220.489 79.9009 220.489 80.5062C220.489 81.2628 220.186 81.8681 219.732 82.3221C219.127 82.9274 218.067 83.0787 217.311 83.0787C216.554 83.0787 215.495 82.9274 214.889 82.3221C214.435 81.8681 214.133 81.2628 214.133 80.5062H215.041V80.3548Z" fill="black"/>
<path d="M226.386 74.6045C226.84 74.6045 227.748 74.6045 228.202 75.2098C228.504 75.5124 228.807 76.1178 228.807 76.7231C228.807 77.3284 228.656 77.631 228.353 78.085C228.05 78.3876 227.748 78.539 227.445 78.539C227.899 78.539 228.353 78.8416 228.656 79.1443C228.958 79.447 229.261 79.9009 229.261 80.6576C229.261 81.4142 228.958 81.8682 228.656 82.1708C228.05 82.7761 226.991 82.9275 226.386 82.9275H223.057V74.7558H226.386V74.6045ZM223.813 78.2363H226.083C226.386 78.2363 226.991 78.2363 227.445 77.7823C227.596 77.631 227.899 77.177 227.899 76.7231C227.899 76.2691 227.748 75.9664 227.596 75.8151C227.294 75.5124 226.84 75.3611 226.235 75.3611H223.813V78.2363ZM223.813 82.0195H226.235C227.294 82.0195 227.596 81.7168 227.748 81.5655C228.202 81.2629 228.202 80.8089 228.202 80.3549C228.202 79.5983 227.899 79.2956 227.596 79.1443C227.142 78.8416 226.235 78.8416 226.083 78.8416H223.662V82.0195H223.813Z" fill="black"/>
<path d="M232.593 75.3601C233.047 74.9061 233.955 74.4521 235.166 74.4521C236.377 74.4521 237.285 74.9061 237.739 75.3601C238.495 76.1168 238.949 77.176 238.949 78.8406C238.949 80.5052 238.495 81.5645 237.739 82.1698C236.982 82.9265 235.923 83.0778 235.166 83.0778C234.258 83.0778 233.35 82.9265 232.593 82.1698C231.988 81.5645 231.383 80.5052 231.383 78.8406C231.383 77.176 231.837 75.9654 232.593 75.3601ZM233.199 81.5645C233.653 82.0185 234.409 82.3211 235.317 82.3211C236.225 82.3211 236.831 82.0185 237.285 81.5645C238.041 80.8079 238.193 79.4459 238.193 78.6893C238.193 76.8734 237.436 76.1167 237.133 75.8141C236.528 75.2088 235.771 75.2088 235.317 75.2088C234.561 75.2088 233.955 75.3601 233.501 75.8141C232.593 76.5707 232.442 77.9327 232.442 78.538C232.291 80.2026 232.745 81.1105 233.199 81.5645Z" fill="black"/>
<path d="M248.483 82.0195L248.332 84.5921H247.575V82.7761H241.068V84.5921H240.311L240.16 82.0195H240.917C241.673 80.9602 242.127 79.9009 242.279 79.4469C242.581 78.3877 242.581 77.177 242.581 76.2691V74.6045H247.121V82.0195H248.483ZM243.489 75.3611V76.4204C243.489 78.3877 243.187 79.5983 242.884 80.3549C242.581 80.9602 242.43 81.5655 241.976 82.0195H246.365V75.3611H243.489Z" fill="black"/>
<path d="M257.258 80.2035C257.107 80.9602 256.804 81.7168 256.35 82.1708C255.593 82.9274 254.685 83.0787 253.929 83.0787C253.021 83.0787 252.113 82.9274 251.356 82.0194C250.6 81.1115 250.297 79.9009 250.297 78.6903C250.297 77.631 250.6 76.269 251.508 75.3611C252.113 74.9071 252.869 74.3018 254.08 74.3018C254.988 74.3018 256.047 74.6044 256.653 75.2097C257.107 75.6637 257.409 76.269 257.409 77.0256H256.501C256.501 76.4203 256.199 75.9664 255.896 75.6637C255.593 75.3611 254.988 75.0584 254.08 75.0584C253.475 75.0584 252.718 75.2097 252.113 75.815C251.508 76.4203 251.205 77.3283 251.205 78.5389C251.205 79.5982 251.508 80.8088 252.264 81.5655C252.567 81.8681 253.172 82.3221 254.231 82.3221C255.139 82.3221 255.745 82.0194 256.047 81.7168C256.35 81.5655 256.653 80.9602 256.804 80.2035H257.258Z" fill="black"/>
<path d="M258.619 75.3611V74.6045H264.824V75.3611H262.1V82.7761H261.192V75.3611H258.619Z" fill="black"/>
<path d="M270.273 74.6045C270.727 74.6045 271.634 74.6045 272.088 75.2098C272.391 75.5124 272.694 76.1178 272.694 76.7231C272.694 77.3284 272.542 77.631 272.24 78.085C271.937 78.3876 271.634 78.539 271.332 78.539C271.786 78.539 272.24 78.8416 272.542 79.1443C272.845 79.447 273.148 79.9009 273.148 80.6576C273.148 81.4142 272.845 81.8682 272.542 82.1708C271.937 82.7761 270.878 82.9275 270.273 82.9275H266.943V74.7558H270.273V74.6045ZM267.851 78.2363H270.121C270.424 78.2363 271.029 78.2363 271.483 77.7823C271.634 77.631 271.937 77.177 271.937 76.7231C271.937 76.2691 271.786 75.9664 271.635 75.8151C271.332 75.5124 270.878 75.3611 270.273 75.3611H267.851V78.2363ZM267.851 82.0195H270.273C271.332 82.0195 271.635 81.7168 271.786 81.5655C272.24 81.2629 272.24 80.8089 272.24 80.3549C272.24 79.5983 271.937 79.2956 271.635 79.1443C271.181 78.8416 270.273 78.8416 270.121 78.8416H267.7V82.0195H267.851Z" fill="black"/>
<path d="M280.869 78.2354V78.992H276.48V82.1699H281.323V82.9265H275.572V74.7549H281.171V75.5115H276.48V78.3867H280.869V78.2354Z" fill="black"/>
<path d="M284.345 82.7761H283.438V74.6045H284.345V78.085H288.734V74.6045H289.642V82.7761H288.734V78.8416H284.345V82.7761Z" fill="black"/>
<path d="M293.277 82.7761H292.369V74.6045H293.277V78.085H297.666V74.6045H298.574V82.7761H297.666V78.8416H293.277V82.7761Z" fill="black"/>
<path d="M301.449 82.7761H300.541L303.568 74.6045H304.476L307.502 82.7761H306.594L305.686 80.5062H302.206L301.449 82.7761ZM305.535 79.7496L304.022 75.5124L302.508 79.7496H305.535Z" fill="black"/>
<path d="M312.495 79.446L310.528 82.7752H309.469L311.587 79.2947C310.982 79.2947 310.377 78.992 310.074 78.6894C309.771 78.3867 309.469 77.7814 309.469 77.0248C309.469 76.1168 309.771 75.6629 310.074 75.3602C310.679 74.7549 311.587 74.7549 312.193 74.7549H315.522V82.9265H314.614V79.5973H312.495V79.446ZM312.344 75.3602C312.041 75.3602 311.285 75.3602 310.831 75.8142C310.528 76.1168 310.377 76.5708 310.377 77.0248C310.377 77.4788 310.528 77.9328 310.831 78.2354C311.133 78.5381 311.587 78.6894 312.495 78.6894H314.765V75.3602H312.344Z" fill="black"/>
<path d="M96.8531 88.5264H97.9124L93.8266 92.3095L98.0637 96.698H96.8531L92.7673 92.4609V96.698H91.8594V88.5264H92.7673V92.3095L96.8531 88.5264Z" fill="black"/>
<path d="M100.486 89.283C100.94 88.829 101.848 88.375 103.059 88.375C104.269 88.375 105.177 88.829 105.631 89.283C106.388 90.0396 106.842 91.0989 106.842 92.7635C106.842 94.4281 106.388 95.4874 105.631 96.0927C104.874 96.8493 103.815 97.0006 103.059 97.0006C102.151 97.0006 101.243 96.8493 100.486 96.0927C99.8807 95.4874 99.2754 94.4281 99.2754 92.7635C99.2754 91.0989 99.7294 89.8883 100.486 89.283ZM101.091 95.4874C101.545 95.9413 102.302 96.244 103.21 96.244C104.118 96.244 104.723 95.9413 105.177 95.4874C105.934 94.7307 106.085 93.3688 106.085 92.6122C106.085 90.7962 105.328 90.0396 105.026 89.737C104.42 89.1316 103.664 89.1316 103.21 89.1316C102.453 89.1316 101.848 89.283 101.394 89.737C100.486 90.4936 100.335 91.8555 100.335 92.4608C100.183 94.1254 100.637 95.0334 101.091 95.4874Z" fill="black"/>
<path d="M110.17 89.5857V89.8883V96.698H109.262V88.5264H110.624L113.348 95.4874L116.071 88.5264H117.282V96.698H116.374V89.8883V89.5857L113.65 96.698H112.894L110.17 89.5857Z" fill="black"/>
<path d="M121.064 96.698H120.156V88.5264H126.209V96.698H125.301V89.283H120.913V96.698H121.064Z" fill="black"/>
<path d="M129.236 96.698H128.328L131.355 88.5264H132.263L135.289 96.698H134.381L133.473 94.4281H129.993L129.236 96.698ZM133.322 93.6715L131.809 89.4343L130.295 93.6715H133.322Z" fill="black"/>
<path d="M138.316 96.698H137.408V88.5264H138.316V92.0069H142.705V88.5264H143.613V96.698H142.705V92.7635H138.316V96.698Z" fill="black"/>
<path d="M151.784 88.5264H152.692V96.698H151.784V89.737L147.244 96.698H146.336V88.5264H147.244V95.4874L151.784 88.5264Z" fill="black"/>
<path d="M158.29 93.3689L156.323 96.6981H155.264L157.382 93.2175C156.777 93.2175 156.172 92.9149 155.869 92.6122C155.566 92.3096 155.264 91.7043 155.264 90.9476C155.264 90.0397 155.566 89.5857 155.869 89.2831C156.474 88.6777 157.382 88.6777 157.988 88.6777H161.317V96.8494H160.409V93.3689H158.29ZM157.988 89.2831C157.685 89.2831 156.928 89.2831 156.474 89.737C156.172 90.0397 156.02 90.4937 156.02 90.9476C156.02 91.4016 156.172 91.8556 156.474 92.1583C156.777 92.4609 157.231 92.6122 158.139 92.6122H160.409V89.2831H157.988Z" fill="black"/>
<path d="M315.673 66.2822H92.0117V67.7955H315.673V66.2822Z" fill="#A72322"/>
<path d="M95.0402 26.7835H101.245V38.2843H104.271V24.0596H92.0137V38.2843H95.0402V26.7835Z" fill="#005081"/>
<path d="M110.326 34.1974H112.596C115.623 34.1974 117.893 32.3815 117.893 29.0523C117.893 25.7231 115.471 23.9072 112.445 23.9072H107.148V38.1319H110.326V34.1974ZM110.326 26.6311H111.688C113.504 26.6311 114.715 27.5391 114.715 29.0523C114.715 30.4143 113.656 31.6249 112.142 31.6249H110.326V26.6311Z" fill="#005081"/>
<path d="M134.386 31.1718C134.386 26.632 131.209 23.7568 126.669 23.7568C122.28 23.7568 118.951 26.632 118.951 31.1718C118.951 35.7116 122.129 38.5869 126.669 38.5869C131.209 38.5869 134.386 35.7116 134.386 31.1718ZM122.28 31.1718C122.28 28.448 124.096 26.632 126.669 26.632C129.393 26.632 131.057 28.5993 131.057 31.1718C131.057 33.8957 129.241 35.7116 126.669 35.7116C124.096 35.7116 122.28 33.7444 122.28 31.1718Z" fill="#005081"/>
<path d="M162.229 38.5869C166.618 38.5869 169.947 35.7116 169.947 31.1718C169.947 26.632 166.769 23.7568 162.229 23.7568C157.841 23.7568 154.512 26.632 154.512 31.1718C154.663 35.7116 157.841 38.5869 162.229 38.5869ZM162.229 26.4807C164.953 26.4807 166.618 28.448 166.618 31.0205C166.618 33.7444 164.802 35.5603 162.229 35.5603C159.506 35.5603 157.841 33.5931 157.841 31.0205C157.841 28.448 159.657 26.4807 162.229 26.4807Z" fill="#005081"/>
<path d="M139.681 27.3888V26.9348L139.832 27.6914L143.313 38.2843H145.734L149.366 27.6914L149.517 27.3888V26.9348V38.2843H152.695V24.0596H148.004L144.675 33.2905H144.523L141.345 24.0596H136.654V38.2843H139.681V27.3888Z" fill="#005081"/>
<path d="M104.725 44.792H100.639L95.0402 50.6938V44.792H92.0137V59.0167H95.0402V52.207L100.942 59.0167H105.179L98.3694 51.4504L104.725 44.792Z" fill="#005081"/>
<path d="M112.897 44.4893C108.509 44.4893 105.18 47.3645 105.18 51.9043C105.18 56.4441 108.358 59.3193 112.897 59.3193C117.286 59.3193 120.615 56.4441 120.615 51.9043C120.615 47.3645 117.437 44.4893 112.897 44.4893ZM112.897 56.4441C110.173 56.4441 108.509 54.4768 108.509 51.9043C108.509 49.1804 110.325 47.3645 112.897 47.3645C115.621 47.3645 117.286 49.3317 117.286 51.9043C117.437 54.6282 115.621 56.4441 112.897 56.4441Z" fill="#005081"/>
<path d="M132.116 50.0884H126.063V44.792H122.885V59.0167H126.063V52.8123H132.116V59.0167H135.294V44.792H132.116V50.0884Z" fill="#005081"/>
<path d="M159.052 44.792L152.848 59.0167H156.328L157.387 56.2928H163.138L164.197 59.0167H167.678L161.473 44.792H159.052ZM162.079 53.7203H158.295L158.447 53.2663L160.111 49.1805L160.263 48.4239L160.414 49.1805L162.079 53.2663V53.7203Z" fill="#005081"/>
<path d="M183.719 47.5159H187.805V59.0167H190.982V47.5159H194.917V44.792H183.719V47.5159Z" fill="#005081"/>
<path d="M221.852 50.0884H215.799V44.792H212.621V59.0167H215.799V52.8123H221.852V59.0167H225.03V44.792H221.852V50.0884Z" fill="#005081"/>
<path d="M227.752 44.792V59.0167H230.93V47.5159H236.68V44.792H227.752Z" fill="#005081"/>
<path d="M145.281 56.4441C142.557 56.4441 140.893 54.4768 140.893 51.9043C140.893 49.1804 142.709 47.3645 145.281 47.3645C147.4 47.3645 148.762 48.5751 149.367 50.2397H152.696C151.939 46.7592 149.064 44.4893 145.13 44.4893C140.741 44.4893 137.412 47.3645 137.412 51.9043C137.412 56.4441 140.59 59.3193 145.13 59.3193C149.064 59.3193 152.091 57.0494 152.696 53.4176H149.367C148.913 55.2335 147.4 56.4441 145.281 56.4441Z" fill="#005081"/>
<path d="M205.964 44.792L200.365 54.0229L200.214 54.7796V44.792H197.188V59.0167H200.214H200.668L206.418 49.7858L206.57 49.0291V59.0167H209.596V44.792H208.537H205.964Z" fill="#005081"/>
<path d="M170.25 46.1539V51.753C170.25 53.8716 169.948 56.1415 168.283 56.5955L169.342 59.168C172.369 58.8654 173.428 54.9309 173.428 51.753C173.428 49.9371 173.428 48.4238 173.428 47.5159H177.968V59.0167H181.146V44.792H170.25V46.1539Z" fill="#005081"/>
<path d="M82.9291 64.9192V0H0.00195312V82.9271H65.8291C65.8291 83.0784 82.7777 65.2219 82.9291 64.9192Z" fill="#A72322"/>
<path d="M57.2034 22.5499C57.3548 22.0959 57.8088 21.3393 58.2627 20.4313C58.5654 19.826 58.868 19.2207 59.1707 18.7667C59.322 18.464 59.1707 18.1614 58.7167 18.1614C58.414 18.1614 58.1114 18.1614 57.8088 18.3127C57.3548 18.3127 56.9008 18.464 56.5981 18.464C56.2955 18.464 56.1442 18.3127 56.1442 18.0101C56.2955 15.8915 59.1707 15.1349 57.2034 11.8057C57.0521 13.4703 56.4468 14.6809 55.6902 15.8915C54.9335 17.1021 53.8743 18.01 52.9663 19.0693C52.0583 20.1286 51.1504 21.0366 50.5451 22.2472C50.0911 23.3065 49.7884 24.6684 49.9398 26.1817C49.9398 26.4844 50.2424 26.6357 50.5451 26.4844C52.0583 25.8791 52.9663 23.9118 54.4796 23.0038C54.6309 23.0038 54.7822 23.0038 54.7822 23.0038C56.2955 23.4578 57.9601 23.6091 59.1707 25.1224C58.7167 24.5171 58.1114 23.7605 57.5061 23.1552C57.2034 22.8525 57.0521 22.7012 57.2034 22.5499Z" fill="#E62A32"/>
<path d="M82.9302 5C81.8709 5.15133 80.8116 5.30267 79.9036 5.60532C77.1797 6.36196 74.7585 8.02653 74.7585 12.1124C74.7585 12.415 74.4559 12.5663 74.1532 12.5663C71.732 11.6584 71.8833 15.8955 69.1595 13.0203C69.0081 12.869 68.8568 12.869 68.7055 12.869C67.1922 13.323 66.2842 14.0796 65.5276 15.1389C64.7709 16.1982 64.4683 17.5601 64.1656 19.0734C63.5603 21.7973 63.1064 24.5212 60.9878 26.4884C60.8365 26.6397 60.6852 26.6397 60.5338 26.6397C59.9285 26.4884 59.4745 25.8831 58.8692 25.2778C58.8692 25.4291 58.5666 25.5805 58.5666 25.7318C58.4153 27.8504 58.4153 29.2123 57.81 30.5743C57.2047 31.9362 56.448 32.9955 55.5401 33.9034C54.6321 34.8114 53.7241 35.7194 52.8162 36.6273C51.9082 37.5353 51.0002 38.7459 50.3949 40.1078C49.7896 41.4698 48.125 42.5291 46.4605 41.3185C46.3091 41.1671 46.3091 41.1671 46.3091 41.0158C46.1578 39.9565 44.9472 40.4105 44.6445 39.1999C44.4932 41.9238 49.3356 43.5884 47.5197 45.1016C47.3684 45.2529 47.0657 45.2529 46.9144 45.1016L44.1906 42.2264C43.8879 41.9238 43.4339 42.2264 43.4339 42.5291C43.5852 44.345 39.6507 42.8317 39.9534 45.1016C39.9534 45.5556 39.4994 45.7069 39.1967 45.4043C37.3808 43.891 37.3808 44.9503 37.2295 44.6476L34.0516 39.9565C36.4729 43.891 34.0516 42.8317 31.6304 41.7724C31.1764 41.6211 30.8738 42.2264 31.1764 42.5291C32.5384 43.5884 33.5977 44.9503 32.841 45.7069C32.841 45.8583 32.6897 45.8583 32.5384 45.8583C32.387 45.8583 32.0844 45.8583 31.9331 45.7069C31.4791 45.5556 31.1764 46.0096 31.3278 46.3122C31.9331 47.2202 32.0844 48.2795 31.7817 48.8848C30.1171 47.6742 29.9658 46.3122 28.6038 44.799C28.4525 44.6476 27.9985 44.6476 27.8472 44.799C27.5446 45.4043 27.0906 45.8583 26.0313 45.7069C25.7287 45.7069 25.426 45.8582 25.5773 46.1609C26.0313 47.8255 27.6959 47.6742 28.7552 49.3388C28.9065 49.6414 28.7552 49.9441 28.4525 49.9441C25.7286 50.0954 22.8534 45.1016 18.9189 42.9831C18.7676 42.9831 18.7676 42.8317 18.7676 42.6804C18.3136 40.8645 18.3136 39.3512 18.465 37.9893C18.6163 36.6273 18.7676 35.4167 18.465 34.3574C18.465 34.3574 18.1623 35.4167 17.7083 36.6273C17.557 37.2326 17.2543 37.8379 17.2543 38.2919C17.103 38.5946 16.8004 38.7459 16.649 38.4432C14.8331 37.2326 12.1092 37.8379 11.5039 35.2654C11.5039 34.9627 11.2013 34.8114 10.8986 34.9627C8.93138 35.8707 7.56941 37.6866 6.66145 39.8052C5.75348 41.9238 5.29953 44.345 4.84555 46.4636C4.84555 46.7662 4.99686 46.9175 5.29951 46.9175C6.20747 46.9175 6.96409 46.9175 8.02338 47.8255C8.02338 49.9441 6.35882 48.8848 4.84555 47.9768C4.5429 47.8255 4.08888 48.1282 4.24021 48.5821C5.29949 50.3981 7.72072 52.3653 9.53665 54.4839C9.68797 54.7865 9.53667 55.0892 9.23402 55.2405C5.7535 55.5432 6.20749 56.7538 2.57565 56.4511C2.12167 56.4511 1.97032 57.0564 2.27298 57.2078L3.33228 57.9644C3.63494 58.1157 3.63493 58.5697 3.18095 58.721C1.66768 59.3263 5.29948 62.3529 2.42427 62.5042C1.81896 62.2016 1.36503 61.4449 1.06238 60.537C0.911054 60.2343 0.608363 60.2343 0.457036 60.3856C0.305709 60.537 0.302654 60.5361 0 60.5361L0.0105101 82.9308L31.9436 82.9317C32.0949 81.8724 32.6897 81.4201 33.295 80.5121C33.9003 79.6042 34.8083 78.6962 35.5649 77.7882C36.9268 76.1236 38.7427 74.6104 40.5587 73.7024C42.2233 72.9458 43.7365 72.0378 45.4011 70.9785C48.2764 69.4653 51.1516 67.952 54.4808 67.3467L53.2702 66.1361C55.5401 66.7414 56.448 65.8334 57.0533 64.9254C57.5073 64.1688 57.81 63.2608 58.5666 62.8069C58.8693 62.6555 58.8692 62.2015 58.4153 62.0502L57.2046 61.7476C57.0533 61.7476 56.902 61.5963 56.902 61.4449C56.2967 58.8724 57.6586 59.0237 58.1126 57.6618C58.2639 57.3591 58.5666 57.2078 58.7179 57.3591L61.4418 59.175C61.7445 59.3264 62.1984 59.0237 62.0471 58.721C61.5931 57.2078 60.0799 56.2998 59.3232 54.4839C59.1719 54.1812 59.4745 53.8786 59.7772 53.8786C61.8958 54.0299 62.5011 51.4574 63.1064 50.5494C63.2577 50.2467 63.5604 50.2467 63.7117 50.3981C65.225 51.6087 64.9223 52.8193 65.6789 53.8786C65.9816 51.6087 63.2577 48.5821 64.317 46.9175C64.4683 46.6149 64.771 46.6149 64.9223 46.9175L65.5276 47.5229C65.5276 45.253 65.9816 43.2857 66.7382 41.6211C67.4949 39.9565 68.5541 38.4432 69.6134 36.93C70.6727 35.4167 71.8833 34.0548 72.9426 32.6928C74.0019 31.3309 74.9099 29.8176 75.6665 28.3044C75.8178 28.153 75.6665 27.8504 75.5152 27.699C75.2125 27.5477 74.9099 27.0937 74.4559 26.6397C74.3046 26.4884 74.3046 26.1858 74.4559 26.0344C75.6665 24.8238 77.0285 23.4619 78.2391 22.2513C79.601 20.8893 81.1143 19.5274 82.3249 17.8628L82.9302 17.7115V5Z" fill="#E62A32"/>
<path d="M60.8366 14.9828L60.3826 15.4368C60.2313 15.5881 60.2313 16.0421 60.5339 16.1934L60.9879 16.3447C61.2906 16.4961 61.5932 16.3447 61.5932 16.0421V15.2854C61.5932 14.9828 61.1393 14.6801 60.8366 14.9828Z" fill="#E62A32"/>
<path d="M52.0579 6.2067L51.9065 7.11467C51.7552 7.71997 52.0579 8.17395 52.5119 8.4766C53.7225 8.93058 53.7225 8.17395 54.3278 7.41732C54.6304 6.96334 54.6304 6.2067 54.3278 5.90405L54.1765 5.75273C53.4198 4.84477 52.2092 5.29874 52.0579 6.2067Z" fill="#E62A32"/>
<path d="M74.305 47.0634L72.9431 47.5174C72.0351 47.8201 71.2785 48.4254 71.2785 49.182C71.1272 50.6953 72.3378 50.09 73.5484 49.9387C74.4563 49.9387 75.3643 49.4847 75.8183 48.728L75.9696 48.4254C76.5749 47.3661 75.667 46.4581 74.305 47.0634Z" fill="#E62A32"/>
<path d="M55.5425 40.4039L71.1291 24.0605H58.2663L42.6797 40.4039L58.7203 59.0171H72.3397L55.5425 40.4039Z" fill="white"/>
<path d="M32.8438 50.8458V59.1688H42.5287V40.4043C42.68 40.5556 37.5349 46.0034 32.8438 50.8458Z" fill="white"/>
<path d="M32.8421 46.7596C35.7173 43.733 38.8952 40.4039 38.8952 40.4039L42.6784 36.4693V24.0605H11.959V59.1684H21.7952V33.1402H32.9934V46.7596H32.8421Z" fill="white"/>
</svg>
