<svg width="32" height="32" viewBox="0 0 32 32" fill="none" xmlns="http://www.w3.org/2000/svg">
<g clip-path="url(#clip0_99_856)">
<path fill-rule="evenodd" clip-rule="evenodd" d="M32 16.0007C32 24.8367 24.836 32.0007 16 32.0007C7.164 32.0007 0 24.8367 0 16.0007C0 7.16473 7.164 0.000732422 16 0.000732422C24.836 0.000732422 32 7.16473 32 16.0007ZM16.5733 11.8127C15.0173 12.4594 11.9067 13.7994 7.24267 15.8314C6.48533 16.1327 6.088 16.4274 6.052 16.7154C5.99067 17.2034 6.60133 17.3954 7.43067 17.6554C7.544 17.6914 7.66133 17.7274 7.78133 17.7674C8.59867 18.0327 9.69733 18.3434 10.268 18.3554C10.7867 18.3661 11.3653 18.1527 12.004 17.7154C16.3613 14.7727 18.6107 13.2861 18.752 13.2541C18.852 13.2314 18.9907 13.2021 19.084 13.2861C19.1773 13.3687 19.168 13.5261 19.1587 13.5687C19.0973 13.8261 16.7053 16.0514 15.4653 17.2034C15.0787 17.5621 14.8053 17.8167 14.7493 17.8754C14.624 18.0047 14.496 18.1287 14.3733 18.2474C13.6133 18.9781 13.0453 19.5274 14.4053 20.4234C15.0587 20.8541 15.5813 21.2101 16.1027 21.5647C16.672 21.9527 17.24 22.3394 17.976 22.8221C18.1627 22.9447 18.3413 23.0714 18.516 23.1954C19.1787 23.6687 19.7747 24.0927 20.5107 24.0261C20.9373 23.9861 21.38 23.5847 21.604 22.3861C22.1333 19.5514 23.176 13.4127 23.4173 10.8821C23.432 10.672 23.4231 10.4609 23.3907 10.2527C23.3713 10.0846 23.2894 9.92997 23.1613 9.8194C22.9707 9.6634 22.6747 9.63007 22.5413 9.63273C21.94 9.6434 21.0173 9.96473 16.5733 11.8127Z" fill="#0D4F81"/>
</g>
<defs>
<clipPath id="clip0_99_856">
<rect width="32" height="32" fill="white" transform="translate(0 0.000732422)"/>
</clipPath>
</defs>
</svg>
