<svg width="32" height="32" viewBox="0 0 32 32" fill="none" xmlns="http://www.w3.org/2000/svg">
<g clip-path="url(#clip0_99_864)">
<path d="M20.91 0.000732422H11.087C2.12305 0.000732422 -0.00195312 2.12573 -0.00195312 11.0897V20.9127C-0.00195312 29.8767 2.12305 32.0017 11.087 32.0017H20.91C29.874 32.0017 31.999 29.8767 31.999 20.9127V11.0897C31.999 2.12573 29.853 0.000732422 20.91 0.000732422ZM25.832 22.8287H23.509C22.629 22.8287 22.358 22.1307 20.775 20.5267C19.4 19.1937 18.791 19.0167 18.452 19.0167C17.973 19.0167 17.837 19.1517 17.837 19.8087V21.9077C17.837 22.4707 17.66 22.8087 16.17 22.8087C13.706 22.8087 10.972 21.3187 9.05505 18.5427C6.16405 14.4747 5.37305 11.4277 5.37305 10.7977C5.37305 10.4587 5.50805 10.1417 6.15905 10.1417H8.48705C9.07605 10.1417 9.30005 10.4127 9.52905 11.0427C10.68 14.3657 12.597 17.2767 13.388 17.2767C13.68 17.2767 13.815 17.1417 13.815 16.3967V12.9647C13.726 11.3817 12.893 11.2457 12.893 10.6837C12.893 10.4127 13.117 10.1417 13.476 10.1417H17.137C17.632 10.1417 17.814 10.4127 17.814 10.9957V15.6257C17.814 16.1257 18.038 16.3027 18.173 16.3027C18.465 16.3027 18.715 16.1257 19.256 15.5837C20.928 13.7087 22.126 10.8177 22.126 10.8177C22.282 10.4787 22.553 10.1617 23.142 10.1617H25.47C26.168 10.1617 26.324 10.5207 26.168 11.0207C25.876 12.3747 23.027 16.3957 23.027 16.3957C22.782 16.8017 22.688 16.9787 23.027 17.4317C23.277 17.7707 24.09 18.4737 24.631 19.1037C25.626 20.2337 26.391 21.1817 26.595 21.8377C26.824 22.4887 26.486 22.8277 25.829 22.8277L25.832 22.8287Z" fill="#E62A32"/>
</g>
<defs>
<clipPath id="clip0_99_864">
<rect width="32" height="32" fill="white" transform="translate(0 0.000732422)"/>
</clipPath>
</defs>
</svg>
