<svg width="32" height="32" viewBox="0 0 32 32" fill="none" xmlns="http://www.w3.org/2000/svg">
<g clip-path="url(#clip0_99_860)">
<path d="M31.3342 8.67716C31.153 8.0308 30.8 7.44562 30.3128 6.98383C29.8119 6.50783 29.1979 6.16734 28.5288 5.99449C26.0248 5.33449 15.9928 5.33449 15.9928 5.33449C11.8106 5.28691 7.6294 5.49619 3.47282 5.96116C2.80374 6.14678 2.19091 6.49488 1.68882 6.97449C1.19549 7.44916 0.838156 8.03449 0.65149 8.67583C0.20308 11.0915 -0.0147877 13.5443 0.000822911 16.0012C-0.0151771 18.4558 0.202156 20.9078 0.65149 23.3265C0.834156 23.9652 1.19016 24.5478 1.68482 25.0185C2.17949 25.4892 2.79549 25.8292 3.47282 26.0092C6.01016 26.6678 15.9928 26.6678 15.9928 26.6678C20.1804 26.7155 24.3669 26.5062 28.5288 26.0412C29.1979 25.8683 29.8119 25.5278 30.3128 25.0518C30.7998 24.5901 31.1524 24.0049 31.3328 23.3585C31.7929 20.9438 32.0167 18.4899 32.0008 16.0318C32.0354 13.5633 31.812 11.0979 31.3342 8.67583V8.67716ZM12.8035 20.5665V11.4372L21.1502 16.0025L12.8035 20.5665Z" fill="#0D4F81"/>
</g>
<defs>
<clipPath id="clip0_99_860">
<rect width="32" height="32" fill="white" transform="translate(0 0.000732422)"/>
</clipPath>
</defs>
</svg>
