<svg width="100" height="100" viewBox="0 0 100 100" fill="none" xmlns="http://www.w3.org/2000/svg">
<rect width="100" height="100" fill="#0D4F81"/>
<path fill-rule="evenodd" clip-rule="evenodd" d="M46.8199 11.1496C39.7653 11.9455 33.5455 14.8658 28.526 19.7391C22.1099 25.968 18.6871 34.4488 19.0225 43.2863C19.125 45.9889 19.3899 47.8069 20.0409 50.2767C22.0383 57.8545 27.0082 64.5866 33.6941 68.7709C36.1318 70.2966 39.7582 71.843 42.5441 72.5451L43.1873 72.7072V78.568V84.4286H41.819C40.7465 84.4286 40.3218 84.4949 39.8535 84.7354C39.1819 85.0804 38.6466 85.9582 38.6466 86.7143C38.6466 87.4704 39.1819 88.3483 39.8535 88.6933C40.4335 88.991 40.7282 89 49.9985 89C59.2687 89 59.5634 88.991 60.1434 88.6933C60.815 88.3483 61.3503 87.4704 61.3503 86.7143C61.3503 85.9582 60.815 85.0804 60.1434 84.7354C59.6751 84.4949 59.2504 84.4286 58.1779 84.4286H56.8096V78.568V72.7072L57.4529 72.5443C60.6277 71.7407 64.4715 70.0244 67.1623 68.209C74.7599 63.0834 79.7444 54.9131 80.7891 45.8734C82.5868 30.3192 72.7217 15.8607 57.6598 11.9743C54.2834 11.1031 50.072 10.7827 46.8199 11.1496ZM52.7986 15.7126C56.019 16.0833 58.7093 16.8724 61.5774 18.2875C66.762 20.8455 70.7685 24.7624 73.4526 29.8972C79.7157 41.8785 75.9292 56.8157 64.7168 64.3585C62.2411 66.024 59.3242 67.3396 56.5497 68.0426C44.3227 71.1403 31.7776 65.2798 26.2266 53.8767C21.5687 44.3085 22.9958 33.0884 29.9161 24.8694C35.4461 18.3015 44.3466 14.7398 52.7986 15.7126ZM47.7281 20.22C42.2736 20.9185 37.8447 23.1487 34.1058 27.0795C31.174 30.1619 29.2627 33.8912 28.4037 38.2051C27.9978 40.2444 28.0361 44.5156 28.4789 46.5911C29.3509 50.6778 31.334 54.5119 34.023 57.3107C35.0756 58.4061 35.7434 58.6713 36.7168 58.3799C37.2178 58.23 37.7689 57.7809 39.2086 56.3501C40.2252 55.3396 41.1618 54.2908 41.2897 54.0194C42.2129 52.0609 40.2263 50.0562 38.2827 50.9848C38.0157 51.1124 37.431 51.5901 36.9835 52.0463L36.1694 52.876L35.4909 51.8576C34.2598 50.0102 33.1492 47.2032 32.8382 45.153L32.74 44.5054H34.0344C35.6408 44.5054 36.3742 44.1864 36.8283 43.2903C37.2143 42.5287 37.2143 41.9106 36.8283 41.1491C36.3742 40.2529 35.6408 39.934 34.0344 39.934H32.74L32.8382 39.2864C33.1492 37.2361 34.2598 34.4291 35.4909 32.5817L36.1694 31.5634L36.9835 32.3931C37.431 32.8493 38.0157 33.327 38.2827 33.4545C40.2234 34.3818 42.213 32.3787 41.292 30.4249C41.1653 30.1561 40.6908 29.5675 40.2377 29.1169L39.4135 28.2974L40.425 27.6143C42.2601 26.3749 45.0483 25.2569 47.0848 24.9437L47.7281 24.8448V26.148C47.7281 27.7652 48.0449 28.5036 48.935 28.9607C49.6915 29.3493 50.3054 29.3493 51.0619 28.9607C51.952 28.5036 52.2688 27.7652 52.2688 26.148V24.8448L52.9121 24.9437C54.9486 25.2569 57.7368 26.3749 59.5719 27.6143L60.5834 28.2974L59.7593 29.1169C59.3061 29.5675 58.8316 30.1561 58.7049 30.4249C57.7839 32.3787 59.7735 34.3818 61.7142 33.4545C61.9812 33.327 62.5659 32.8493 63.0135 32.3931L63.8275 31.5634L64.506 32.5817C65.7371 34.4291 66.8477 37.2361 67.1587 39.2864L67.2569 39.934H65.9625C64.3562 39.934 63.6227 40.2529 63.1686 41.1491C62.7826 41.9106 62.7826 42.5287 63.1686 43.2903C63.6227 44.1864 64.3562 44.5054 65.9625 44.5054H67.2569L67.1587 45.153C66.8477 47.2032 65.7371 50.0102 64.506 51.8576L63.8275 52.876L63.0135 52.0463C62.5659 51.5901 61.9812 51.1124 61.7142 50.9848C59.7706 50.0562 57.784 52.0609 58.7072 54.0194C58.8351 54.2908 59.7717 55.3396 60.7883 56.3501C62.2281 57.7809 62.7792 58.23 63.2801 58.3799C64.2475 58.6694 64.9242 58.4049 65.9362 57.3418C68.749 54.3868 70.6234 50.7771 71.5187 46.5911C71.9592 44.5317 71.9957 40.2608 71.5905 38.2051C70.6602 33.4862 68.5259 29.5827 65.0371 26.2199C62.0375 23.3285 58.4892 21.4433 54.418 20.5776C52.9819 20.2722 48.9872 20.0586 47.7281 20.22ZM54.3122 34.8287C53.6453 35.1863 48.362 40.5237 48.0202 41.185C47.8596 41.496 47.7281 41.9615 47.7281 42.2197C47.7281 42.9758 48.2634 43.8536 48.935 44.1986C49.6842 44.5834 50.3069 44.5875 51.0262 44.2126C51.7435 43.8388 57.1907 38.3223 57.405 37.7527C57.7689 36.7854 57.529 35.8036 56.7495 35.0705C56.2438 34.5949 54.9813 34.4697 54.3122 34.8287ZM44.362 58.5337C43.723 58.8733 43.1873 59.7724 43.1873 60.5051C43.1873 61.2612 43.7227 62.1391 44.3943 62.4841C44.7227 62.6528 45.2013 62.7908 45.4577 62.7908C46.6094 62.7908 47.7281 61.6646 47.7281 60.5051C47.7281 59.749 47.1927 58.8712 46.5211 58.5262C45.7754 58.1433 45.0923 58.1456 44.362 58.5337ZM53.4435 58.5337C52.8045 58.8733 52.2688 59.7724 52.2688 60.5051C52.2688 61.2612 52.8042 62.1391 53.4758 62.4841C53.8042 62.6528 54.2828 62.7908 54.5392 62.7908C55.2902 62.7908 56.1622 62.2519 56.5049 61.5758C56.6724 61.2451 56.8096 60.7633 56.8096 60.5051C56.8096 59.749 56.2742 58.8712 55.6026 58.5262C54.8569 58.1433 54.1738 58.1456 53.4435 58.5337ZM52.2688 78.9049V84.4286H49.9985H47.7281V78.9049V73.3812H49.9985H52.2688V78.9049Z" fill="white"/>
</svg>
