<svg width="100" height="100" viewBox="0 0 100 100" fill="none" xmlns="http://www.w3.org/2000/svg">
<rect width="100" height="100" fill="#0D4F81"/>
<path d="M56.3035 60.9958L63.802 53.5659L85 74.5701L77.5015 82L56.3035 60.9958ZM69.4444 42.8782C76.2677 42.8782 81.8182 37.3784 81.8182 30.6175C81.8182 28.5858 81.2525 26.6941 80.3687 25.0127L70.8232 34.4709L65.5556 29.2514L75.101 19.7932C73.404 18.9174 71.495 18.3569 69.4444 18.3569C62.6212 18.3569 57.0707 23.8567 57.0707 30.6175C57.0707 32.0538 57.3535 33.42 57.8131 34.6811L51.2727 41.1617L44.9798 34.9263L47.4899 32.4391L42.5051 27.4998L50 20.0734C48.0114 18.1054 45.3157 17 42.5051 17C39.6944 17 36.9987 18.1054 35.0101 20.0734L22.4949 32.4742L27.4798 37.4134H17.5101L15 39.9006L27.5152 52.3013L30.0253 49.8142V39.9006L35.0101 44.8399L37.5202 42.3527L43.8131 48.5881L17.6162 74.5456L25.1111 81.972L65.3434 42.1425C66.6162 42.5979 67.995 42.8782 69.4444 42.8782Z" stroke="white" stroke-width="4"/>
</svg>
