<svg width="100" height="100" viewBox="0 0 100 100" fill="none" xmlns="http://www.w3.org/2000/svg">
<rect width="100" height="100" fill="#0D4F81"/>
<path d="M17.5 51.0003C17.5 51.5336 17.7 51.9669 18.0667 52.3336C18.4333 52.7003 18.9 52.8669 19.4 52.8669H29.3333C29.8 52.8669 30.2333 52.7336 30.6 52.4336C30.9667 52.1336 31.1667 51.7669 31.2667 51.3003L34.2667 33.7336L39.6667 77.6669C39.7333 78.1336 39.9667 78.5336 40.3 78.8669C40.6333 79.1669 41.0333 79.3336 41.5 79.3336C42 79.3336 42.4333 79.1669 42.7667 78.8669C43.1 78.5669 43.3333 78.1669 43.4333 77.6669L47.6 45.4336L51.0667 54.7669C51.2 55.1336 51.4 55.4336 51.7333 55.6669C52.0667 55.9003 52.4 56.0003 52.8 56.0003H52.9667C53.3667 55.9669 53.7333 55.8336 54.0333 55.5669C54.3667 55.3003 54.5667 54.9669 54.6667 54.5336L59.7667 31.6669L62.1333 75.6003C62.1667 76.0669 62.3333 76.5003 62.6333 76.8336C62.9333 77.1669 63.3333 77.3669 63.8333 77.4003C64.3 77.4336 64.7333 77.3336 65.1 77.0669C65.4641 76.7959 65.7231 76.4072 65.8333 75.9669L71.3333 52.8336H80.5667C81.1 52.8336 81.5333 52.6669 81.9 52.3003C82.2667 51.9336 82.4667 51.5003 82.4667 50.9669C82.4667 50.4336 82.2667 50.0003 81.9 49.6336C81.7267 49.4551 81.5195 49.313 81.2906 49.2156C81.0616 49.1183 80.8155 49.0678 80.5667 49.0669H69.8C69.3667 49.0669 68.9667 49.2003 68.6333 49.4669C68.3 49.7336 68.0667 50.0669 67.9667 50.5003L65.2 62.3003L62.8 17.7669C62.779 17.3044 62.5893 16.8657 62.2667 16.5336C62.1132 16.3681 61.9277 16.2354 61.7214 16.1438C61.5151 16.0521 61.2924 16.0033 61.0667 16.0003C60.6 15.9669 60.1667 16.0669 59.7667 16.3669C59.3667 16.6669 59.1333 17.0336 59.0333 17.5003L52.3667 47.4003L48.5 36.8669C48.3667 36.4669 48.1 36.1669 47.7 35.9336C47.3 35.7003 46.9 35.6003 46.5 35.6669C46.0667 35.7003 45.7 35.9003 45.4 36.2003C45.1 36.5003 44.9 36.9003 44.8333 37.3336L41.5667 62.3669L36.4667 20.5003C36.3861 20.0535 36.1641 19.6445 35.8333 19.3336C35.5023 19.0346 35.0788 18.8581 34.6333 18.8336C34.175 18.796 33.7203 18.9396 33.3667 19.2336C33 19.5336 32.7667 19.9003 32.7 20.4003L27.7667 49.1003H19.4C18.8667 49.1003 18.4333 49.3003 18.0667 49.6669C17.7 50.0336 17.5 50.4669 17.5 51.0003Z" fill="white"/>
</svg>
