<svg width="100" height="100" viewBox="0 0 100 100" fill="none" xmlns="http://www.w3.org/2000/svg">
<rect width="100" height="100" fill="#0D4F81"/>
<path fill-rule="evenodd" clip-rule="evenodd" d="M37.2164 15.2188C36.3331 15.5254 35.7224 15.9653 35.2231 16.6549C34.4322 17.747 34.4162 17.9222 34.4162 25.4928V32.4068L32.9463 30.9538C31.4299 29.4548 31.0845 29.1974 30.5898 29.1974C30.1357 29.1974 29.5625 29.5531 29.3837 29.9458C29.1467 30.4659 29.1467 83.7309 29.3837 84.251C29.7467 85.048 27.9465 84.9994 57.114 84.9994C86.2815 84.9994 84.4812 85.048 84.8443 84.251C85.048 83.8039 85.0517 83.4273 84.8563 83.0414C84.7732 82.8772 83.5666 81.5969 82.1751 80.1962L79.6452 77.6497L80.803 77.589C82.6923 77.4898 83.9366 76.7041 84.6513 75.159L84.9393 74.5365V46.2936V18.0506L84.6513 17.4282C84.2305 16.5183 83.5882 15.8556 82.7081 15.4233L81.9311 15.0417L59.917 15.0111C39.295 14.9825 37.8594 14.9956 37.2164 15.2188ZM81.5695 17.9036C81.7768 18.0108 82.0197 18.2599 82.1096 18.4571C82.3465 18.9774 82.3465 73.6098 82.1096 74.1301C81.8155 74.7759 81.3936 74.8785 79.0318 74.8785H76.871L69.4884 67.4929L62.1057 60.1073H67.8867C74.1528 60.1073 74.355 60.0857 74.8278 59.3638C75.1453 58.8793 75.0117 58.0857 74.5445 57.6797L74.1904 57.3719H66.7785H59.3665L57.3874 55.3888L55.4084 53.4056L61.6963 53.4048C65.4666 53.4044 68.1813 53.3493 68.4766 53.2673C69.1876 53.0697 69.4884 52.6762 69.4884 51.9433C69.4884 51.4413 69.4189 51.2706 69.1047 51.0002L68.721 50.6702H60.6938H52.6666L50.6875 48.6871L48.7084 46.7039H51.937C53.7127 46.7039 55.3569 46.6656 55.5909 46.6188C56.6626 46.4044 57.0969 45.0829 56.3433 44.329L55.9828 43.9685H50.9772H45.9717L41.5613 39.5585L37.1509 35.1485L37.1556 26.9415C37.1608 18.1501 37.1503 18.2872 37.8496 17.8996C38.3559 17.6188 81.0266 17.6228 81.5695 17.9036ZM45.0965 24.0543C44.4407 24.4178 44.4077 24.6345 44.4025 28.6298L44.3977 32.3704L44.8626 32.8354L45.3275 33.3005H59.6235C69.6112 33.3005 74.0175 33.2557 74.2451 33.1521C74.9788 32.8177 75.0261 32.5423 75.0261 28.6015C75.0261 24.684 74.9821 24.3993 74.3226 24.0582C73.7813 23.7783 45.6013 23.7743 45.0965 24.0543ZM72.2914 28.5819V30.5651H59.7119H47.1324V28.5819V26.5987H59.7119H72.2914V28.5819ZM19.3578 27.9689C17.4129 28.2974 15.9264 29.5839 15.2826 31.4952C15.0018 32.3291 15 32.4685 15 53.4421V74.5498L16.6214 78.5096C19.2355 84.8934 19.0889 84.5753 19.5199 84.7982C20.0118 85.0528 20.3799 85.0528 20.8719 84.7982C21.303 84.5753 21.1559 84.8943 23.7724 78.5044L25.3959 74.5397L25.3596 53.202C25.3245 32.5038 25.3155 31.8459 25.0607 31.2489C24.056 28.8951 21.7445 27.5657 19.3578 27.9689ZM21.4288 30.9944C22.2498 31.4538 22.5813 32.0933 22.6374 33.3247L22.6861 34.3946H20.2104H17.7347V33.4804C17.7347 31.9935 18.3418 31.0955 19.6167 30.697C20.1101 30.5428 20.8343 30.6615 21.4288 30.9944ZM56.1568 58.1242L80.2901 82.264H78.4101H76.5302V81.8476C76.5302 81.3531 76.007 80.767 75.545 80.7438C74.5896 80.6958 74.1329 80.9713 73.9324 81.7165L73.785 82.264H72.6416H71.4982L71.4504 81.043C71.4125 80.073 71.3447 79.7442 71.1208 79.4445C70.5926 78.7372 69.7044 78.6846 69.0664 79.3228C68.7636 79.6257 68.7363 79.7607 68.7363 80.9586V82.264H67.5057C66.4854 82.264 66.2751 82.2278 66.2751 82.052C66.2751 81.2998 65.3616 80.574 64.5986 80.7199C64.1322 80.8091 63.5405 81.4872 63.5405 81.9326C63.5405 82.2588 63.5209 82.264 62.3099 82.264H61.0793V81.0353C61.0793 79.8871 61.0546 79.7791 60.7032 79.3893C60.4624 79.1222 60.1441 78.943 59.8182 78.8912C59.3664 78.8194 59.2545 78.8646 58.8268 79.2924C58.3457 79.7737 58.3446 79.7776 58.3446 81.0194V82.264H57.114C55.8946 82.264 55.8834 82.2609 55.8834 81.9243C55.8834 81.7373 55.7125 81.3932 55.5037 81.1593C54.7823 80.3517 53.4987 80.6928 53.2272 81.7643L53.1004 82.264H51.894H50.6875V81.0947C50.6875 79.7494 50.4933 79.241 49.8825 78.988C49.3542 78.769 48.7542 78.9072 48.3461 79.3414C48.0606 79.645 48.0154 79.8435 47.9737 80.9755L47.9264 82.264H46.709H45.4916V81.8723C45.4916 81.4014 44.9589 80.8218 44.4286 80.7155C43.7997 80.5896 43.1293 81.0131 42.8979 81.6828L42.6971 82.264H41.5648H40.4325L40.4248 81.2725C40.4144 79.9365 40.2105 79.3882 39.6039 79.0629C39.0238 78.7521 38.5145 78.836 38.0279 79.3228C37.725 79.6257 37.6978 79.7607 37.6978 80.9586V82.264H34.8264H31.955V79.3919V76.5197H33.2645C34.5295 76.5197 34.5875 76.5062 34.9736 76.1199C35.5133 75.5801 35.5191 74.9092 34.9891 74.3158C34.6191 73.9018 34.5554 73.8831 33.2799 73.8163L31.955 73.747V72.6331V71.5191L32.5361 71.3182C33.2403 71.0748 33.6957 70.3718 33.5431 69.7638C33.4029 69.2044 32.8614 68.7238 32.3713 68.7238H31.955V67.4929V66.262H33.0285C34.344 66.262 34.909 66.0797 35.1723 65.5701C35.4953 64.9454 35.4269 64.3797 34.9736 63.9264C34.5875 63.5401 34.5295 63.5266 33.2645 63.5266H31.955V62.3108V61.0952L32.4117 61.0095C33.0785 60.8843 33.5213 60.352 33.5213 59.6753C33.5213 59.2239 33.4395 59.0489 33.0777 58.7257C32.8339 58.5077 32.4815 58.3293 32.2946 58.3293C31.9584 58.3293 31.955 58.3173 31.955 57.1113V55.893L33.3343 55.8461C34.6497 55.8013 34.729 55.7813 35.0435 55.4153C35.6293 54.7338 35.4127 53.7025 34.5961 53.2848C34.4318 53.2009 33.7704 53.1321 33.1262 53.1321H31.955V51.9011C31.955 50.7713 31.9769 50.6702 32.222 50.6702C33.0036 50.6702 33.7128 49.7919 33.5292 49.0515C33.3989 48.5265 32.9384 48.089 32.4117 47.9901L31.955 47.9043V46.6887V45.473H33.2645C34.5295 45.473 34.5875 45.4594 34.9736 45.0732C35.5192 44.5275 35.5195 43.8631 34.9745 43.2526C34.5842 42.8155 34.5477 42.805 33.2653 42.7585L31.955 42.7112V41.5748V40.4385L32.5361 40.2545C33.2399 40.0317 33.6977 39.3328 33.5431 38.7171C33.4029 38.1577 32.8614 37.6771 32.3713 37.6771H31.955V35.8307C31.955 34.8152 31.9704 33.9843 31.9893 33.9843C32.0082 33.9843 42.8836 44.8472 56.1568 58.1242ZM22.6571 55.0469V72.9637H20.1959H17.7347V55.0469V37.13H20.1959H22.6571V55.0469ZM44.8755 37.5748C44.0544 38.2812 44.3835 39.5599 45.4636 39.8599C46.1493 40.0505 73.261 40.0541 73.9459 39.8639C74.6569 39.6663 74.9577 39.2728 74.9577 38.5398C74.9577 38.0379 74.8883 37.8672 74.5741 37.5968L74.1904 37.2668H59.7119H45.2335L44.8755 37.5748ZM62.9245 44.2987C62.4378 44.7854 62.3539 45.2949 62.6647 45.8751C62.8389 46.2003 63.0845 46.4161 63.4039 46.5253C64.0118 46.7326 73.2178 46.7679 73.9459 46.5656C74.6569 46.368 74.9577 45.9745 74.9577 45.2416C74.9577 44.7396 74.8883 44.5689 74.5741 44.2985L74.1904 43.9685H68.7225H63.2546L62.9245 44.2987ZM38.3507 50.6099C38.1457 50.7211 37.9151 50.9301 37.8379 51.0741C37.7452 51.2474 37.6978 55.4747 37.6978 63.5673V75.7985L38.0582 76.1592L38.4188 76.5197H50.6757C64.1079 76.5197 63.3169 76.5692 63.6738 75.7072C63.7696 75.4757 63.8045 75.1275 63.7531 74.9153C63.6903 74.6561 59.9208 70.7897 51.8076 62.6627C45.288 56.132 39.7878 50.7006 39.5847 50.5928C39.1235 50.3479 38.8257 50.352 38.3507 50.6099ZM72.773 50.978C71.7259 51.888 72.656 53.635 73.9847 53.2538C74.6616 53.0596 74.9577 52.6639 74.9577 51.9539C74.9577 51.4404 74.89 51.2721 74.5741 51.0002C74.0654 50.5627 73.2622 50.5527 72.773 50.978ZM49.7987 64.484L59.0958 73.7843H49.7641H40.4325V64.484C40.4325 59.3688 40.4481 55.1836 40.4671 55.1836C40.4861 55.1836 44.6853 59.3688 49.7987 64.484ZM21.7605 76.212C21.6414 76.4941 21.2613 77.4173 20.9159 78.2635C20.5705 79.1098 20.2465 79.8022 20.1959 79.8022C20.1453 79.8022 19.8212 79.1098 19.4758 78.2635C19.1305 77.4173 18.7503 76.4941 18.6312 76.212L18.4147 75.6991H20.1959H21.9771L21.7605 76.212Z" fill="white"/>
</svg>
