<svg width="100" height="100" viewBox="0 0 100 100" fill="none" xmlns="http://www.w3.org/2000/svg">
<rect width="100" height="100" fill="#0D4F81"/>
<path fill-rule="evenodd" clip-rule="evenodd" d="M81 16H19V84H81V16ZM15 12V88H85V12H15Z" fill="white"/>
<path fill-rule="evenodd" clip-rule="evenodd" d="M74.4773 23.9059H43.7337V43.3831H74.4773V23.9059ZM41.2109 21.4238V45.8652H77.0001V21.4238H41.2109Z" fill="white"/>
<path d="M56.9247 29.2807C56.9247 31.2091 55.3614 32.7723 53.433 32.7723C51.5047 32.7723 49.9414 31.2091 49.9414 29.2807C49.9414 27.3523 51.5047 25.7891 53.433 25.7891C55.3614 25.7891 56.9247 27.3523 56.9247 29.2807Z" fill="white"/>
<path d="M56.9247 38.0092C56.9247 39.9376 55.3614 41.5008 53.433 41.5008C51.5047 41.5008 49.9414 39.9376 49.9414 38.0092C49.9414 36.0808 51.5047 34.5176 53.433 34.5176C55.3614 34.5176 56.9247 36.0808 56.9247 38.0092Z" fill="white"/>
<path d="M68.2704 29.2807C68.2704 31.2091 66.7071 32.7723 64.7787 32.7723C62.8504 32.7723 61.2871 31.2091 61.2871 29.2807C61.2871 27.3523 62.8504 25.7891 64.7787 25.7891C66.7071 25.7891 68.2704 27.3523 68.2704 29.2807Z" fill="white"/>
<path d="M68.2704 38.8813C68.2704 40.8096 66.7071 42.3729 64.7787 42.3729C62.8504 42.3729 61.2871 40.8096 61.2871 38.8813C61.2871 36.9529 62.8504 35.3896 64.7787 35.3896C66.7071 35.3896 68.2704 36.9529 68.2704 38.8813Z" fill="white"/>
<rect x="23.002" y="21.4238" width="12.7288" height="16.3656" fill="white"/>
<path d="M33.0021 33.2432C33.0021 35.2518 31.3739 36.88 29.3653 36.88C27.3568 36.88 25.7285 35.2518 25.7285 33.2432C25.7285 31.2347 27.3568 29.6064 29.3653 29.6064C31.3739 29.6064 33.0021 31.2347 33.0021 33.2432Z" fill="#0D4F81"/>
</svg>
