<svg width="100" height="100" viewBox="0 0 100 100" fill="none" xmlns="http://www.w3.org/2000/svg">
<rect width="100" height="100" fill="#0D4F81"/>
<path fill-rule="evenodd" clip-rule="evenodd" d="M24.9247 34.5995C25.7936 33.7285 25.7919 32.3179 24.9208 31.4489C24.0498 30.58 22.6392 30.5817 21.7702 31.4528C20.9013 32.3239 20.903 33.7344 21.7741 34.6034C22.6452 35.4723 24.0557 35.4706 24.9247 34.5995ZM27.0277 36.6974C29.0552 34.6649 29.0512 31.3735 27.0187 29.346C24.9862 27.3184 21.6948 27.3225 19.6673 29.355C17.6397 31.3875 17.6438 34.6788 19.6763 36.7063C21.7088 38.7339 25.0001 38.7299 27.0277 36.6974Z" fill="white"/>
<path fill-rule="evenodd" clip-rule="evenodd" d="M54.8126 35.1462C55.7329 35.9629 57.141 35.8789 57.9576 34.9586C58.7743 34.0383 58.6903 32.6303 57.77 31.8136C56.8497 30.997 55.4416 31.081 54.625 32.0012C53.8083 32.9215 53.8923 34.3296 54.8126 35.1462ZM52.841 37.368C54.9883 39.2735 58.2738 39.0775 60.1794 36.9302C62.0849 34.7829 61.8889 31.4974 59.7416 29.5919C57.5943 27.6863 54.3088 27.8823 52.4032 30.0297C50.4977 32.177 50.6937 35.4625 52.841 37.368Z" fill="white"/>
<path fill-rule="evenodd" clip-rule="evenodd" d="M54.5407 65.2552C53.8064 66.2424 54.0116 67.638 54.9988 68.3723C55.9861 69.1065 57.3817 68.9014 58.116 67.9141C58.8502 66.9268 58.6451 65.5313 57.6578 64.797C56.6705 64.0628 55.2749 64.2679 54.5407 65.2552ZM52.1572 63.4825C50.4439 65.7862 50.9226 69.0425 53.2262 70.7558C55.5299 72.469 58.7862 71.9904 60.4995 69.6868C62.2127 67.3831 61.7341 64.1268 59.4304 62.4135C57.1268 60.7003 53.8704 61.1789 52.1572 63.4825Z" fill="white"/>
<path fill-rule="evenodd" clip-rule="evenodd" d="M24.8318 65.013C23.9246 64.1818 22.5154 64.2435 21.6843 65.1508C20.8531 66.058 20.9148 67.4672 21.822 68.2983C22.7293 69.1295 24.1385 69.0678 24.9696 68.1606C25.8008 67.2533 25.7391 65.8441 24.8318 65.013ZM26.8384 62.8227C24.7215 60.8834 21.4333 61.0274 19.494 63.1442C17.5547 65.2611 17.6987 68.5493 19.8155 70.4886C21.9324 72.4279 25.2206 72.2839 27.1599 70.1671C29.0992 68.0502 28.9552 64.762 26.8384 62.8227Z" fill="white"/>
<path fill-rule="evenodd" clip-rule="evenodd" d="M11.0521 56.5339C10.7248 56.7294 10.3774 56.8346 10.0174 56.8346C8.06184 56.8346 6.47656 53.7315 6.47656 49.9036C6.47656 46.0757 8.06184 42.9727 10.0174 42.9727C10.271 42.9727 10.5183 43.0248 10.7568 43.124H14.163V56.5339H11.0521Z" fill="white"/>
<path fill-rule="evenodd" clip-rule="evenodd" d="M48.9356 27.0083L30.0285 27.1402L16.7524 40.6028L16.8843 59.5099L30.3469 72.7859L49.254 72.654L62.5301 59.1914L62.3981 40.2843L48.9356 27.0083ZM46.9406 31.9206L32.0906 32.0242L21.6633 42.598L21.7669 57.448L32.3407 67.8752L47.1907 67.7716L57.618 57.1978L57.5143 42.3479L46.9406 31.9206Z" fill="white"/>
<path d="M22.7148 47.5788V51.8859L24.2496 53.1731H27.0714L27.319 53.9157H91.7273C91.7273 53.9157 93.8472 51.6462 93.8561 49.8561C93.8651 48.0489 91.7273 45.7471 91.7273 45.7471H27.319L27.0714 46.3907H24.2496L22.7148 47.5788Z" fill="white"/>
<rect x="11.625" y="41.0928" width="10.2974" height="17.5254" fill="white"/>
<circle cx="20.042" cy="49.8057" r="5.34673" fill="white"/>
</svg>
